<svg width="6" height="6" viewBox="0 0 6 6" fill="none" xmlns="http://www.w3.org/2000/svg">
<path d="M2.80811 4.30127C2.52686 4.25293 2.35107 4.15405 2.21265 4.01562C1.67871 3.48389 1.68311 2.73682 2.21045 2.20947L2.95972 1.45801C3.48706 0.930664 4.23413 0.92627 4.76807 1.46021C5.2998 1.99414 5.29541 2.73901 4.77026 3.26636L4.12427 3.91016C4.14624 3.76733 4.13306 3.60474 4.07153 3.46411L4.5022 3.03345C4.88232 2.65332 4.88672 2.1106 4.5022 1.72607C4.11768 1.34155 3.57715 1.34375 3.19263 1.72607L2.47632 2.44238C2.09619 2.82251 2.09399 3.36743 2.47852 3.75195C2.62134 3.89478 2.8103 3.98267 3.10034 4.00464L2.80811 4.30127ZM2.86304 2.49072C3.14429 2.53906 3.32007 2.63794 3.4585 2.77637C3.99243 3.30811 3.98804 4.05518 3.46069 4.58252L2.70923 5.33618C2.18408 5.86133 1.43701 5.86572 0.903076 5.33179C0.371338 4.80005 0.375732 4.05298 0.900879 3.52563L1.54688 2.88184C1.52271 3.02466 1.53809 3.18945 1.59961 3.32788L1.16895 3.75854C0.786621 4.14087 0.784424 4.6814 1.16895 5.06812C1.55347 5.45044 2.09399 5.44824 2.47632 5.06592L3.19482 4.34961C3.57495 3.96948 3.57715 3.42456 3.19263 3.04004C3.0498 2.89722 2.86084 2.81152 2.5708 2.78735L2.86304 2.49072Z" fill="#191919"/>
</svg>
