<svg width="28" height="28" viewBox="0 0 28 28" fill="none" xmlns="http://www.w3.org/2000/svg">
<path id="&#244;&#128;&#129;&#183;" d="M14 28C6.34269 28 0 21.6709 0 14C0 6.34269 6.32914 0 13.9864 0C21.6573 0 28 6.34269 28 14C28 21.6709 21.6573 28 14 28ZM14.0136 21.1152C14.7454 21.1152 15.274 20.6137 15.274 19.8954V13.2682L15.1384 10.3543L16.4259 11.9535L17.9845 13.5799C18.2014 13.8238 18.4995 13.9458 18.8383 13.9458C19.5024 13.9458 20.0039 13.4714 20.0039 12.8074C20.0039 12.4685 19.8954 12.1975 19.6651 11.9535L15.0165 7.25073C14.7047 6.92546 14.4066 6.77638 14.0136 6.77638C13.6341 6.77638 13.3359 6.92546 13.0242 7.25073L8.36205 11.9535C8.13165 12.1975 8.03679 12.4685 8.03679 12.8074C8.03679 13.4714 8.52468 13.9458 9.18877 13.9458C9.52759 13.9458 9.8393 13.8103 10.0426 13.5799L11.6147 11.94L12.8887 10.3679L12.7531 13.2682V19.8954C12.7531 20.6137 13.2817 21.1152 14.0136 21.1152Z" fill="#191919"/>
</svg>
